<?xml version="1.0" standalone="no"?>
<!DOCTYPE svg PUBLIC "-//W3C//DTD SVG 20010904//EN"
 "http://www.w3.org/TR/2001/REC-SVG-20010904/DTD/svg10.dtd">
<svg version="1.0" xmlns="http://www.w3.org/2000/svg"
 width="446.000000pt" height="446.000000pt" viewBox="0 0 446.000000 446.000000"
 preserveAspectRatio="xMidYMid meet">

<g transform="translate(0.000000,446.000000) scale(0.100000,-0.100000)"
fill="#000000" stroke="none">
<path d="M1995 4450 c-769 -87 -1425 -550 -1766 -1245 -157 -321 -232 -662
-224 -1020 13 -584 228 -1100 631 -1514 319 -329 718 -547 1169 -638 134 -27
151 -28 430 -28 279 0 296 1 430 28 845 171 1518 805 1730 1631 50 197 65 325
65 568 0 378 -60 647 -219 973 -318 651 -914 1099 -1631 1225 -141 25 -474 35
-615 20z m-25 -96 c-31 -14 -741 -308 -979 -405 -52 -22 -96 -39 -98 -39 -10
0 62 54 151 114 177 118 397 219 615 282 98 28 268 62 316 63 l30 0 -35 -15z
m705 -15 c210 -42 483 -150 678 -268 76 -46 237 -161 225 -161 -6 0 -52 19
-618 253 -234 97 -441 183 -460 192 l-35 16 55 -6 c30 -3 100 -15 155 -26z
m-477 -141 l-3 -163 -91 -6 c-363 -26 -724 -175 -1020 -421 l-91 -76 -118 118
c-114 115 -118 119 -94 128 32 13 1143 471 1289 533 63 26 118 48 123 48 4 1
6 -72 5 -161z m519 -19 c241 -99 552 -228 692 -285 139 -58 265 -110 279 -115
25 -10 24 -12 -88 -124 l-113 -113 -76 65 c-273 234 -664 398 -994 419 -45 3
-97 7 -114 10 l-33 5 0 159 c0 88 2 160 5 160 3 0 202 -81 442 -181z m-517
-414 c0 -107 -2 -195 -6 -195 -3 0 -32 19 -66 41 -82 56 -187 103 -289 131
-69 18 -111 22 -231 23 -82 0 -148 1 -148 2 0 0 30 15 68 33 177 84 442 149
645 159 l27 1 0 -195z m305 173 c110 -15 261 -56 370 -99 164 -65 164 -64 -3
-64 -213 -1 -351 -41 -516 -152 -43 -29 -81 -53 -83 -53 -7 0 -3 377 5 384 8
8 112 1 227 -16z m-1683 -345 c60 -59 108 -112 108 -118 -1 -5 -28 -41 -61
-80 -88 -102 -193 -263 -254 -389 -90 -189 -159 -438 -171 -619 -9 -141 10
-127 -174 -127 -88 0 -160 2 -160 3 0 2 17 46 39 98 21 52 152 370 290 708
266 649 258 631 269 631 4 0 55 -48 114 -107z m2298 68 c102 -34 213 -93 272
-144 l36 -32 -283 -290 -284 -290 -286 285 -286 285 28 23 c60 51 176 121 240
146 115 45 185 56 333 52 121 -3 145 -6 230 -35z m808 -342 c84 -206 214 -522
289 -704 74 -181 138 -335 140 -342 4 -10 -30 -13 -155 -13 l-161 0 -5 53 c-3
28 -8 84 -11 122 -29 332 -187 703 -414 972 -34 39 -61 75 -61 80 0 14 204
213 215 210 5 -2 79 -172 163 -378z m-2150 356 c132 -27 276 -96 374 -178 l27
-22 -277 -277 c-152 -153 -281 -281 -285 -285 -5 -4 -134 120 -288 277 l-278
285 32 28 c85 73 235 145 357 171 86 19 252 20 338 1z m-1382 -507 c-90 -221
-197 -479 -236 -573 -69 -165 -71 -168 -65 -110 27 263 136 587 278 827 68
113 178 271 184 264 3 -2 -70 -186 -161 -408z m3628 257 c133 -198 223 -391
285 -612 29 -103 71 -321 71 -366 0 -12 -48 93 -106 233 -229 553 -364 886
-364 896 1 13 32 -28 114 -151z m-479 -69 c58 -82 109 -191 136 -291 17 -62
22 -109 22 -205 0 -146 -20 -233 -81 -363 -36 -75 -125 -207 -140 -207 -4 0
-134 127 -289 282 l-282 282 286 288 c157 158 290 285 294 282 5 -3 29 -33 54
-68z m-2266 -792 l-285 -285 -43 56 c-233 309 -236 717 -5 1024 l48 64 285
-287 285 -287 -285 -285z m921 294 l-1 -503 -24 30 c-33 40 -88 154 -115 240
-17 53 -24 104 -27 205 -6 145 6 218 56 351 20 54 94 179 106 179 3 0 5 -226
5 -502z m122 444 c141 -219 170 -521 72 -763 -28 -69 -104 -199 -116 -199 -5
0 -8 230 -8 510 0 281 3 510 8 510 4 0 24 -26 44 -58z m-343 -208 c-43 -163
-34 -392 21 -537 11 -28 18 -52 17 -54 -2 -1 -81 76 -177 172 l-175 175 165
165 c90 90 165 163 167 161 2 -1 -6 -38 -18 -82z m662 -406 c-111 -111 -161
-155 -157 -138 29 106 46 218 46 300 0 82 -17 194 -46 300 -4 17 46 -27 157
-137 l164 -163 -164 -162z m-1939 212 c-5 -134 7 -235 42 -338 29 -84 78 -183
122 -245 19 -26 34 -49 34 -52 0 -10 -379 -5 -385 5 -18 30 33 332 83 485 22
70 102 265 108 265 1 0 -1 -54 -4 -120z m3137 -25 c67 -169 109 -365 114 -530
l2 -80 -192 -3 c-106 -1 -193 0 -193 3 0 2 17 27 38 55 76 100 140 257 162
394 7 43 11 125 8 191 -5 134 -3 133 61 -30z m-2049 -260 c174 -174 174 -175
124 -156 -103 40 -208 54 -348 48 -116 -5 -164 -13 -256 -42 -15 -5 33 52 135
159 88 91 162 166 165 166 3 0 84 -79 180 -175z m1230 13 c85 -89 146 -158
135 -154 -85 32 -147 41 -300 41 -153 0 -203 -7 -302 -42 -10 -3 54 67 142
156 88 88 162 161 165 161 3 0 75 -73 160 -162z m25 -204 c84 -21 180 -60 246
-100 112 -68 138 -64 -430 -64 -294 0 -511 4 -511 9 0 13 85 66 170 104 75 34
179 63 255 71 64 6 205 -4 270 -20z m-1236 -15 c105 -27 291 -117 291 -141 0
-4 -223 -8 -495 -8 -272 0 -495 3 -495 8 0 11 92 69 144 92 185 79 371 95 555
49z m-1375 -271 c19 -197 30 -270 56 -371 67 -266 187 -501 363 -712 37 -44
67 -83 67 -87 0 -4 -47 -55 -104 -115 -69 -71 -108 -105 -114 -98 -5 6 -85
194 -177 420 -138 339 -215 525 -412 1003 -4 9 31 12 155 12 l161 0 5 -52z
m452 30 c-146 -199 -201 -374 -194 -613 l4 -129 -29 64 c-87 192 -157 490
-157 670 l0 30 196 0 196 0 -16 -22z m1224 2 c-59 -45 -138 -85 -233 -119
-100 -35 -105 -36 -257 -36 -118 0 -171 5 -220 18 -74 21 -231 96 -275 132
l-30 25 520 0 c514 0 520 -1 495 -20z m1235 0 c-24 -27 -188 -106 -260 -125
-85 -23 -270 -31 -358 -15 -40 7 -107 25 -150 41 -74 26 -190 90 -202 110 -4
5 183 9 491 9 494 0 497 0 479 -20z m615 5 c0 -9 -5 -59 -11 -113 -21 -194
-84 -423 -158 -569 l-26 -52 -1 162 c0 134 -4 176 -22 241 -26 95 -88 226
-137 290 -19 25 -35 48 -35 51 0 3 88 5 195 5 169 0 195 -2 195 -15z m397 3
c-197 -478 -274 -664 -412 -1003 -92 -226 -171 -414 -176 -420 -9 -9 -142 114
-201 188 -35 44 -43 24 63 154 183 222 310 492 368 782 11 55 23 138 26 183
10 142 -9 128 176 128 125 0 160 -3 156 -12z m-3084 -860 c-329 -329 -289
-310 -374 -180 -102 156 -152 362 -130 541 21 168 97 347 194 458 l30 34 284
-283 283 -283 -287 -287z m2288 739 c66 -102 112 -228 129 -357 29 -214 -52
-484 -189 -633 l-25 -28 -283 283 -283 283 282 282 c235 236 284 280 297 270
8 -7 40 -52 72 -100z m-1361 -454 c0 -512 0 -516 -20 -498 -27 25 -104 177
-130 260 -17 53 -24 104 -27 205 -6 157 13 259 71 385 32 68 91 165 101 165 3
0 5 -232 5 -517z m118 433 c49 -81 89 -181 108 -275 24 -123 16 -307 -20 -416
-29 -88 -104 -236 -124 -243 -9 -3 -12 102 -12 492 0 273 4 496 8 496 4 0 22
-24 40 -54z m-2038 -466 c259 -629 280 -682 280 -693 0 -5 -22 19 -48 54 -160
211 -294 489 -363 753 -28 108 -59 280 -59 321 1 25 -7 42 190 -435z m4085
327 c-52 -337 -188 -664 -394 -949 -31 -43 -59 -77 -62 -78 -4 0 81 213 188
473 107 259 213 518 236 575 23 56 43 98 45 92 2 -6 -4 -57 -13 -113z m-1798
93 c71 -27 209 -50 298 -50 81 0 218 22 283 44 23 8 42 14 42 13 0 -1 -75 -78
-168 -170 l-167 -167 -175 175 c-96 96 -173 175 -170 175 3 0 29 -9 57 -20z
m-1108 -45 c142 -25 318 -13 439 29 23 8 42 14 42 13 0 -1 -73 -75 -163 -165
l-162 -162 -165 165 c-158 159 -163 165 -120 150 24 -9 82 -22 129 -30z m1178
-505 c-89 -91 -163 -164 -165 -164 -2 1 7 37 18 80 27 98 37 273 21 371 -6 40
-22 107 -36 150 l-24 77 174 -174 175 -175 -163 -165z m-667 399 c-41 -146
-37 -363 10 -505 9 -30 17 -54 16 -54 -1 0 -75 73 -164 163 l-162 162 157 157
c86 87 159 156 160 154 2 -2 -6 -37 -17 -77z m-70 -574 c307 -307 292 -281
204 -347 -167 -128 -416 -191 -619 -159 -166 27 -306 92 -445 208 -6 5 563
573 575 573 6 0 134 -124 285 -275z m1245 -5 c153 -153 277 -281 275 -283 -3
-2 -25 -19 -50 -39 -60 -48 -180 -111 -260 -137 -215 -68 -440 -49 -640 55
-79 42 -159 99 -167 120 -4 11 76 98 268 290 151 151 278 274 284 274 6 0 136
-126 290 -280z m455 -455 c63 -63 112 -116 110 -119 -9 -8 -1394 -578 -1418
-583 l-23 -5 3 158 3 159 75 7 c407 38 769 188 1054 437 38 34 72 61 75 61 4
0 58 -52 121 -115z m-2544 45 c97 -85 261 -193 380 -251 218 -105 511 -179
711 -179 l53 0 0 -165 0 -165 -22 9 c-13 5 -156 64 -318 131 -162 67 -475 196
-695 287 -220 91 -402 167 -404 169 -5 5 210 224 220 224 3 0 37 -27 75 -60z
m1144 -157 l0 -196 -112 6 c-192 11 -411 68 -573 147 -44 22 -69 37 -55 33 59
-15 264 -6 354 16 103 25 246 90 326 149 30 22 56 41 58 41 1 1 2 -87 2 -196z
m144 147 c180 -116 393 -171 591 -151 44 4 82 7 84 5 8 -7 -153 -76 -254 -109
-127 -43 -280 -74 -401 -82 l-94 -6 0 191 c0 106 3 192 7 192 4 0 34 -18 67
-40z m-1248 -378 c104 -44 352 -146 551 -228 198 -82 360 -150 358 -152 -1 -2
-47 4 -101 13 -258 41 -515 131 -739 260 -127 73 -286 185 -262 185 2 0 89
-35 193 -78z m2470 70 c-10 -17 -166 -123 -261 -177 -224 -129 -481 -219 -739
-260 -54 -9 -100 -15 -101 -13 -2 2 182 79 408 173 227 93 473 195 547 226
138 59 155 65 146 51z"/>
</g>
</svg>
